<mxfile host="65bd71144e">
    <diagram id="C5RBs43oDa-KdzZeNtuy" name="Schema">
        <mxGraphModel dx="924" dy="2066" grid="1" gridSize="10" guides="1" tooltips="1" connect="1" arrows="1" fold="1" page="1" pageScale="1" pageWidth="827" pageHeight="1169" background="#ffffff" math="0" shadow="0">
            <root>
                <mxCell id="WIyWlLk6GJQsqaUBKTNV-0"/>
                <mxCell id="WIyWlLk6GJQsqaUBKTNV-1" parent="WIyWlLk6GJQsqaUBKTNV-0"/>
                <mxCell id="qfcaW2iggKkT8xaD9EVF-29" value="&lt;h1&gt;User&lt;/h1&gt;" style="shape=table;html=1;whiteSpace=wrap;startSize=40;container=1;collapsible=0;childLayout=tableLayout;strokeWidth=1;fillColor=#1CBBFF;strokeColor=#000000;fontColor=#000000;" parent="WIyWlLk6GJQsqaUBKTNV-1" vertex="1">
                    <mxGeometry x="40" width="320" height="120" as="geometry"/>
                </mxCell>
                <mxCell id="qfcaW2iggKkT8xaD9EVF-34" value="" style="shape=tableRow;horizontal=0;startSize=0;swimlaneHead=0;swimlaneBody=0;top=0;left=0;bottom=0;right=0;collapsible=0;dropTarget=0;fillColor=none;points=[[0,0.5],[1,0.5]];portConstraint=eastwest;strokeWidth=1;strokeColor=#000000;fontColor=#000000;" parent="qfcaW2iggKkT8xaD9EVF-29" vertex="1">
                    <mxGeometry y="40" width="320" height="40" as="geometry"/>
                </mxCell>
                <mxCell id="qfcaW2iggKkT8xaD9EVF-35" value="email" style="shape=partialRectangle;html=1;whiteSpace=wrap;connectable=0;fillColor=none;top=0;left=0;bottom=0;right=0;overflow=hidden;strokeWidth=1;strokeColor=#000000;fontColor=#000000;" parent="qfcaW2iggKkT8xaD9EVF-34" vertex="1">
                    <mxGeometry width="160" height="40" as="geometry">
                        <mxRectangle width="160" height="40" as="alternateBounds"/>
                    </mxGeometry>
                </mxCell>
                <mxCell id="qfcaW2iggKkT8xaD9EVF-37" value="string" style="shape=partialRectangle;html=1;whiteSpace=wrap;connectable=0;fillColor=none;top=0;left=0;bottom=0;right=0;overflow=hidden;strokeWidth=1;strokeColor=#000000;fontColor=#000000;" parent="qfcaW2iggKkT8xaD9EVF-34" vertex="1">
                    <mxGeometry x="160" width="160" height="40" as="geometry">
                        <mxRectangle width="160" height="40" as="alternateBounds"/>
                    </mxGeometry>
                </mxCell>
                <mxCell id="qfcaW2iggKkT8xaD9EVF-38" value="" style="shape=tableRow;horizontal=0;startSize=0;swimlaneHead=0;swimlaneBody=0;top=0;left=0;bottom=0;right=0;collapsible=0;dropTarget=0;fillColor=none;points=[[0,0.5],[1,0.5]];portConstraint=eastwest;strokeWidth=1;strokeColor=#000000;fontColor=#000000;" parent="qfcaW2iggKkT8xaD9EVF-29" vertex="1">
                    <mxGeometry y="80" width="320" height="40" as="geometry"/>
                </mxCell>
                <mxCell id="qfcaW2iggKkT8xaD9EVF-39" value="password" style="shape=partialRectangle;html=1;whiteSpace=wrap;connectable=0;fillColor=none;top=0;left=0;bottom=0;right=0;overflow=hidden;strokeWidth=1;strokeColor=#000000;fontColor=#000000;" parent="qfcaW2iggKkT8xaD9EVF-38" vertex="1">
                    <mxGeometry width="160" height="40" as="geometry">
                        <mxRectangle width="160" height="40" as="alternateBounds"/>
                    </mxGeometry>
                </mxCell>
                <mxCell id="qfcaW2iggKkT8xaD9EVF-41" value="string" style="shape=partialRectangle;html=1;whiteSpace=wrap;connectable=0;fillColor=none;top=0;left=0;bottom=0;right=0;overflow=hidden;pointerEvents=1;strokeWidth=1;strokeColor=#000000;fontColor=#000000;" parent="qfcaW2iggKkT8xaD9EVF-38" vertex="1">
                    <mxGeometry x="160" width="160" height="40" as="geometry">
                        <mxRectangle width="160" height="40" as="alternateBounds"/>
                    </mxGeometry>
                </mxCell>
                <mxCell id="0" value="&lt;h1&gt;Order&lt;/h1&gt;" style="shape=table;html=1;whiteSpace=wrap;startSize=40;container=1;collapsible=0;childLayout=tableLayout;strokeWidth=1;fillColor=#1CBBFF;strokeColor=#000000;fontColor=#000000;" parent="WIyWlLk6GJQsqaUBKTNV-1" vertex="1">
                    <mxGeometry x="40" y="244" width="320" height="240" as="geometry"/>
                </mxCell>
                <mxCell id="1" value="" style="shape=tableRow;horizontal=0;startSize=0;swimlaneHead=0;swimlaneBody=0;top=0;left=0;bottom=0;right=0;collapsible=0;dropTarget=0;fillColor=none;points=[[0,0.5],[1,0.5]];portConstraint=eastwest;strokeWidth=1;strokeColor=#000000;fontColor=#000000;" parent="0" vertex="1">
                    <mxGeometry y="40" width="320" height="51" as="geometry"/>
                </mxCell>
                <mxCell id="2" value="userId" style="shape=partialRectangle;html=1;whiteSpace=wrap;connectable=0;fillColor=none;top=0;left=0;bottom=0;right=0;overflow=hidden;strokeWidth=1;strokeColor=#000000;fontColor=#000000;" parent="1" vertex="1">
                    <mxGeometry width="160" height="51" as="geometry">
                        <mxRectangle width="160" height="51" as="alternateBounds"/>
                    </mxGeometry>
                </mxCell>
                <mxCell id="3" value="Ref to User" style="shape=partialRectangle;html=1;whiteSpace=wrap;connectable=0;fillColor=none;top=0;left=0;bottom=0;right=0;overflow=hidden;strokeWidth=1;strokeColor=#000000;fontColor=#000000;" parent="1" vertex="1">
                    <mxGeometry x="160" width="160" height="51" as="geometry">
                        <mxRectangle width="160" height="51" as="alternateBounds"/>
                    </mxGeometry>
                </mxCell>
                <mxCell id="4" value="" style="shape=tableRow;horizontal=0;startSize=0;swimlaneHead=0;swimlaneBody=0;top=0;left=0;bottom=0;right=0;collapsible=0;dropTarget=0;fillColor=none;points=[[0,0.5],[1,0.5]];portConstraint=eastwest;strokeWidth=1;strokeColor=#000000;fontColor=#000000;" parent="0" vertex="1">
                    <mxGeometry y="91" width="320" height="49" as="geometry"/>
                </mxCell>
                <mxCell id="5" value="status" style="shape=partialRectangle;html=1;whiteSpace=wrap;connectable=0;fillColor=none;top=0;left=0;bottom=0;right=0;overflow=hidden;strokeWidth=1;strokeColor=#000000;fontColor=#000000;" parent="4" vertex="1">
                    <mxGeometry width="160" height="49" as="geometry">
                        <mxRectangle width="160" height="49" as="alternateBounds"/>
                    </mxGeometry>
                </mxCell>
                <mxCell id="6" value="Created | Canceled | AwaitingPayment | Completed" style="shape=partialRectangle;html=1;whiteSpace=wrap;connectable=0;fillColor=none;top=0;left=0;bottom=0;right=0;overflow=hidden;pointerEvents=1;strokeWidth=1;strokeColor=#000000;fontColor=#000000;" parent="4" vertex="1">
                    <mxGeometry x="160" width="160" height="49" as="geometry">
                        <mxRectangle width="160" height="49" as="alternateBounds"/>
                    </mxGeometry>
                </mxCell>
                <mxCell id="7" style="shape=tableRow;horizontal=0;startSize=0;swimlaneHead=0;swimlaneBody=0;top=0;left=0;bottom=0;right=0;collapsible=0;dropTarget=0;fillColor=none;points=[[0,0.5],[1,0.5]];portConstraint=eastwest;strokeWidth=1;strokeColor=#000000;fontColor=#000000;" parent="0" vertex="1">
                    <mxGeometry y="140" width="320" height="51" as="geometry"/>
                </mxCell>
                <mxCell id="8" value="ticketId" style="shape=partialRectangle;html=1;whiteSpace=wrap;connectable=0;fillColor=none;top=0;left=0;bottom=0;right=0;overflow=hidden;strokeWidth=1;strokeColor=#000000;fontColor=#000000;" parent="7" vertex="1">
                    <mxGeometry width="160" height="51" as="geometry">
                        <mxRectangle width="160" height="51" as="alternateBounds"/>
                    </mxGeometry>
                </mxCell>
                <mxCell id="9" value="Ref to Ticket" style="shape=partialRectangle;html=1;whiteSpace=wrap;connectable=0;fillColor=none;top=0;left=0;bottom=0;right=0;overflow=hidden;pointerEvents=1;strokeWidth=1;strokeColor=#000000;fontColor=#000000;" parent="7" vertex="1">
                    <mxGeometry x="160" width="160" height="51" as="geometry">
                        <mxRectangle width="160" height="51" as="alternateBounds"/>
                    </mxGeometry>
                </mxCell>
                <mxCell id="13" style="shape=tableRow;horizontal=0;startSize=0;swimlaneHead=0;swimlaneBody=0;top=0;left=0;bottom=0;right=0;collapsible=0;dropTarget=0;fillColor=none;points=[[0,0.5],[1,0.5]];portConstraint=eastwest;strokeWidth=1;strokeColor=#000000;fontColor=#000000;" parent="0" vertex="1">
                    <mxGeometry y="191" width="320" height="49" as="geometry"/>
                </mxCell>
                <mxCell id="14" value="expiresAt" style="shape=partialRectangle;html=1;whiteSpace=wrap;connectable=0;fillColor=none;top=0;left=0;bottom=0;right=0;overflow=hidden;strokeWidth=1;strokeColor=#000000;fontColor=#000000;" parent="13" vertex="1">
                    <mxGeometry width="160" height="49" as="geometry">
                        <mxRectangle width="160" height="49" as="alternateBounds"/>
                    </mxGeometry>
                </mxCell>
                <mxCell id="15" value="Date&amp;nbsp; &amp;nbsp; &amp;nbsp; &amp;nbsp;" style="shape=partialRectangle;html=1;whiteSpace=wrap;connectable=0;fillColor=none;top=0;left=0;bottom=0;right=0;overflow=hidden;pointerEvents=1;strokeWidth=1;strokeColor=#000000;fontColor=#000000;" parent="13" vertex="1">
                    <mxGeometry x="160" width="160" height="49" as="geometry">
                        <mxRectangle width="160" height="49" as="alternateBounds"/>
                    </mxGeometry>
                </mxCell>
                <mxCell id="16" value="&lt;h1&gt;Ticket&lt;/h1&gt;" style="shape=table;html=1;whiteSpace=wrap;startSize=40;container=1;collapsible=0;childLayout=tableLayout;strokeWidth=1;fillColor=#1CBBFF;strokeColor=#000000;fontColor=#000000;" parent="WIyWlLk6GJQsqaUBKTNV-1" vertex="1">
                    <mxGeometry x="440" width="330" height="200" as="geometry"/>
                </mxCell>
                <mxCell id="17" value="" style="shape=tableRow;horizontal=0;startSize=0;swimlaneHead=0;swimlaneBody=0;top=0;left=0;bottom=0;right=0;collapsible=0;dropTarget=0;fillColor=none;points=[[0,0.5],[1,0.5]];portConstraint=eastwest;strokeWidth=1;strokeColor=#000000;fontColor=#000000;" parent="16" vertex="1">
                    <mxGeometry y="40" width="330" height="40" as="geometry"/>
                </mxCell>
                <mxCell id="18" value="title" style="shape=partialRectangle;html=1;whiteSpace=wrap;connectable=0;fillColor=none;top=0;left=0;bottom=0;right=0;overflow=hidden;strokeWidth=1;strokeColor=#000000;fontColor=#000000;" parent="17" vertex="1">
                    <mxGeometry width="165" height="40" as="geometry">
                        <mxRectangle width="165" height="40" as="alternateBounds"/>
                    </mxGeometry>
                </mxCell>
                <mxCell id="19" value="string" style="shape=partialRectangle;html=1;whiteSpace=wrap;connectable=0;fillColor=none;top=0;left=0;bottom=0;right=0;overflow=hidden;strokeWidth=1;strokeColor=#000000;fontColor=#000000;" parent="17" vertex="1">
                    <mxGeometry x="165" width="165" height="40" as="geometry">
                        <mxRectangle width="165" height="40" as="alternateBounds"/>
                    </mxGeometry>
                </mxCell>
                <mxCell id="20" value="" style="shape=tableRow;horizontal=0;startSize=0;swimlaneHead=0;swimlaneBody=0;top=0;left=0;bottom=0;right=0;collapsible=0;dropTarget=0;fillColor=none;points=[[0,0.5],[1,0.5]];portConstraint=eastwest;strokeWidth=1;strokeColor=#000000;fontColor=#000000;" parent="16" vertex="1">
                    <mxGeometry y="80" width="330" height="40" as="geometry"/>
                </mxCell>
                <mxCell id="21" value="price" style="shape=partialRectangle;html=1;whiteSpace=wrap;connectable=0;fillColor=none;top=0;left=0;bottom=0;right=0;overflow=hidden;strokeWidth=1;strokeColor=#000000;fontColor=#000000;" parent="20" vertex="1">
                    <mxGeometry width="165" height="40" as="geometry">
                        <mxRectangle width="165" height="40" as="alternateBounds"/>
                    </mxGeometry>
                </mxCell>
                <mxCell id="22" value="number" style="shape=partialRectangle;html=1;whiteSpace=wrap;connectable=0;fillColor=none;top=0;left=0;bottom=0;right=0;overflow=hidden;pointerEvents=1;strokeWidth=1;strokeColor=#000000;fontColor=#000000;" parent="20" vertex="1">
                    <mxGeometry x="165" width="165" height="40" as="geometry">
                        <mxRectangle width="165" height="40" as="alternateBounds"/>
                    </mxGeometry>
                </mxCell>
                <mxCell id="23" style="shape=tableRow;horizontal=0;startSize=0;swimlaneHead=0;swimlaneBody=0;top=0;left=0;bottom=0;right=0;collapsible=0;dropTarget=0;fillColor=none;points=[[0,0.5],[1,0.5]];portConstraint=eastwest;strokeWidth=1;strokeColor=#000000;fontColor=#000000;" parent="16" vertex="1">
                    <mxGeometry y="120" width="330" height="40" as="geometry"/>
                </mxCell>
                <mxCell id="24" value="userId" style="shape=partialRectangle;html=1;whiteSpace=wrap;connectable=0;fillColor=none;top=0;left=0;bottom=0;right=0;overflow=hidden;strokeWidth=1;strokeColor=#000000;fontColor=#000000;" parent="23" vertex="1">
                    <mxGeometry width="165" height="40" as="geometry">
                        <mxRectangle width="165" height="40" as="alternateBounds"/>
                    </mxGeometry>
                </mxCell>
                <mxCell id="25" value="Ref to User" style="shape=partialRectangle;html=1;whiteSpace=wrap;connectable=0;fillColor=none;top=0;left=0;bottom=0;right=0;overflow=hidden;pointerEvents=1;strokeWidth=1;strokeColor=#000000;fontColor=#000000;" parent="23" vertex="1">
                    <mxGeometry x="165" width="165" height="40" as="geometry">
                        <mxRectangle width="165" height="40" as="alternateBounds"/>
                    </mxGeometry>
                </mxCell>
                <mxCell id="26" style="shape=tableRow;horizontal=0;startSize=0;swimlaneHead=0;swimlaneBody=0;top=0;left=0;bottom=0;right=0;collapsible=0;dropTarget=0;fillColor=none;points=[[0,0.5],[1,0.5]];portConstraint=eastwest;strokeWidth=1;strokeColor=#000000;fontColor=#000000;" parent="16" vertex="1">
                    <mxGeometry y="160" width="330" height="40" as="geometry"/>
                </mxCell>
                <mxCell id="27" value="orderId" style="shape=partialRectangle;html=1;whiteSpace=wrap;connectable=0;fillColor=none;top=0;left=0;bottom=0;right=0;overflow=hidden;strokeWidth=1;strokeColor=#000000;fontColor=#000000;" parent="26" vertex="1">
                    <mxGeometry width="165" height="40" as="geometry">
                        <mxRectangle width="165" height="40" as="alternateBounds"/>
                    </mxGeometry>
                </mxCell>
                <mxCell id="28" value="Ref to Order" style="shape=partialRectangle;html=1;whiteSpace=wrap;connectable=0;fillColor=none;top=0;left=0;bottom=0;right=0;overflow=hidden;pointerEvents=1;strokeWidth=1;strokeColor=#000000;fontColor=#000000;" parent="26" vertex="1">
                    <mxGeometry x="165" width="165" height="40" as="geometry">
                        <mxRectangle width="165" height="40" as="alternateBounds"/>
                    </mxGeometry>
                </mxCell>
                <mxCell id="29" value="&lt;h1&gt;Charge&lt;/h1&gt;" style="shape=table;html=1;whiteSpace=wrap;startSize=40;container=1;collapsible=0;childLayout=tableLayout;strokeWidth=1;fillColor=#1CBBFF;strokeColor=#000000;fontColor=#000000;" parent="WIyWlLk6GJQsqaUBKTNV-1" vertex="1">
                    <mxGeometry x="440" y="240" width="330" height="240" as="geometry"/>
                </mxCell>
                <mxCell id="30" value="" style="shape=tableRow;horizontal=0;startSize=0;swimlaneHead=0;swimlaneBody=0;top=0;left=0;bottom=0;right=0;collapsible=0;dropTarget=0;fillColor=none;points=[[0,0.5],[1,0.5]];portConstraint=eastwest;strokeWidth=1;strokeColor=#000000;fontColor=#000000;" parent="29" vertex="1">
                    <mxGeometry y="40" width="330" height="40" as="geometry"/>
                </mxCell>
                <mxCell id="31" value="orderId" style="shape=partialRectangle;html=1;whiteSpace=wrap;connectable=0;fillColor=none;top=0;left=0;bottom=0;right=0;overflow=hidden;strokeWidth=1;strokeColor=#000000;fontColor=#000000;" parent="30" vertex="1">
                    <mxGeometry width="165" height="40" as="geometry">
                        <mxRectangle width="165" height="40" as="alternateBounds"/>
                    </mxGeometry>
                </mxCell>
                <mxCell id="32" value="Ref to Order" style="shape=partialRectangle;html=1;whiteSpace=wrap;connectable=0;fillColor=none;top=0;left=0;bottom=0;right=0;overflow=hidden;strokeWidth=1;strokeColor=#000000;fontColor=#000000;" parent="30" vertex="1">
                    <mxGeometry x="165" width="165" height="40" as="geometry">
                        <mxRectangle width="165" height="40" as="alternateBounds"/>
                    </mxGeometry>
                </mxCell>
                <mxCell id="33" value="" style="shape=tableRow;horizontal=0;startSize=0;swimlaneHead=0;swimlaneBody=0;top=0;left=0;bottom=0;right=0;collapsible=0;dropTarget=0;fillColor=none;points=[[0,0.5],[1,0.5]];portConstraint=eastwest;strokeWidth=1;strokeColor=#000000;fontColor=#000000;" parent="29" vertex="1">
                    <mxGeometry y="80" width="330" height="40" as="geometry"/>
                </mxCell>
                <mxCell id="34" value="status" style="shape=partialRectangle;html=1;whiteSpace=wrap;connectable=0;fillColor=none;top=0;left=0;bottom=0;right=0;overflow=hidden;strokeWidth=1;strokeColor=#000000;fontColor=#000000;" parent="33" vertex="1">
                    <mxGeometry width="165" height="40" as="geometry">
                        <mxRectangle width="165" height="40" as="alternateBounds"/>
                    </mxGeometry>
                </mxCell>
                <mxCell id="35" value="Created | Failed | Completed" style="shape=partialRectangle;html=1;whiteSpace=wrap;connectable=0;fillColor=none;top=0;left=0;bottom=0;right=0;overflow=hidden;pointerEvents=1;strokeWidth=1;strokeColor=#000000;fontColor=#000000;" parent="33" vertex="1">
                    <mxGeometry x="165" width="165" height="40" as="geometry">
                        <mxRectangle width="165" height="40" as="alternateBounds"/>
                    </mxGeometry>
                </mxCell>
                <mxCell id="36" style="shape=tableRow;horizontal=0;startSize=0;swimlaneHead=0;swimlaneBody=0;top=0;left=0;bottom=0;right=0;collapsible=0;dropTarget=0;fillColor=none;points=[[0,0.5],[1,0.5]];portConstraint=eastwest;strokeWidth=1;strokeColor=#000000;fontColor=#000000;" parent="29" vertex="1">
                    <mxGeometry y="120" width="330" height="40" as="geometry"/>
                </mxCell>
                <mxCell id="37" value="amount" style="shape=partialRectangle;html=1;whiteSpace=wrap;connectable=0;fillColor=none;top=0;left=0;bottom=0;right=0;overflow=hidden;strokeWidth=1;strokeColor=#000000;fontColor=#000000;" parent="36" vertex="1">
                    <mxGeometry width="165" height="40" as="geometry">
                        <mxRectangle width="165" height="40" as="alternateBounds"/>
                    </mxGeometry>
                </mxCell>
                <mxCell id="38" value="number" style="shape=partialRectangle;html=1;whiteSpace=wrap;connectable=0;fillColor=none;top=0;left=0;bottom=0;right=0;overflow=hidden;pointerEvents=1;strokeWidth=1;strokeColor=#000000;fontColor=#000000;" parent="36" vertex="1">
                    <mxGeometry x="165" width="165" height="40" as="geometry">
                        <mxRectangle width="165" height="40" as="alternateBounds"/>
                    </mxGeometry>
                </mxCell>
                <mxCell id="39" style="shape=tableRow;horizontal=0;startSize=0;swimlaneHead=0;swimlaneBody=0;top=0;left=0;bottom=0;right=0;collapsible=0;dropTarget=0;fillColor=none;points=[[0,0.5],[1,0.5]];portConstraint=eastwest;strokeWidth=1;strokeColor=#000000;fontColor=#000000;" parent="29" vertex="1">
                    <mxGeometry y="160" width="330" height="40" as="geometry"/>
                </mxCell>
                <mxCell id="40" value="stripeId" style="shape=partialRectangle;html=1;whiteSpace=wrap;connectable=0;fillColor=none;top=0;left=0;bottom=0;right=0;overflow=hidden;strokeWidth=1;strokeColor=#000000;fontColor=#000000;" parent="39" vertex="1">
                    <mxGeometry width="165" height="40" as="geometry">
                        <mxRectangle width="165" height="40" as="alternateBounds"/>
                    </mxGeometry>
                </mxCell>
                <mxCell id="41" value="string" style="shape=partialRectangle;html=1;whiteSpace=wrap;connectable=0;fillColor=none;top=0;left=0;bottom=0;right=0;overflow=hidden;pointerEvents=1;strokeWidth=1;strokeColor=#000000;fontColor=#000000;" parent="39" vertex="1">
                    <mxGeometry x="165" width="165" height="40" as="geometry">
                        <mxRectangle width="165" height="40" as="alternateBounds"/>
                    </mxGeometry>
                </mxCell>
                <mxCell id="42" style="shape=tableRow;horizontal=0;startSize=0;swimlaneHead=0;swimlaneBody=0;top=0;left=0;bottom=0;right=0;collapsible=0;dropTarget=0;fillColor=none;points=[[0,0.5],[1,0.5]];portConstraint=eastwest;strokeWidth=1;strokeColor=#000000;fontColor=#000000;" parent="29" vertex="1">
                    <mxGeometry y="200" width="330" height="40" as="geometry"/>
                </mxCell>
                <mxCell id="43" value="stripeRefundId" style="shape=partialRectangle;html=1;whiteSpace=wrap;connectable=0;fillColor=none;top=0;left=0;bottom=0;right=0;overflow=hidden;strokeWidth=1;strokeColor=#000000;fontColor=#000000;" parent="42" vertex="1">
                    <mxGeometry width="165" height="40" as="geometry">
                        <mxRectangle width="165" height="40" as="alternateBounds"/>
                    </mxGeometry>
                </mxCell>
                <mxCell id="44" value="string" style="shape=partialRectangle;html=1;whiteSpace=wrap;connectable=0;fillColor=none;top=0;left=0;bottom=0;right=0;overflow=hidden;pointerEvents=1;strokeWidth=1;strokeColor=#000000;fontColor=#000000;" parent="42" vertex="1">
                    <mxGeometry x="165" width="165" height="40" as="geometry">
                        <mxRectangle width="165" height="40" as="alternateBounds"/>
                    </mxGeometry>
                </mxCell>
                <mxCell id="45" value="&lt;h1&gt;Services&lt;/h1&gt;" style="shape=table;html=1;whiteSpace=wrap;startSize=40;container=1;collapsible=0;childLayout=tableLayout;strokeWidth=1;fillColor=#1CBBFF;strokeColor=#000000;fontColor=#000000;" parent="WIyWlLk6GJQsqaUBKTNV-1" vertex="1">
                    <mxGeometry x="40" y="540" width="480" height="340" as="geometry"/>
                </mxCell>
                <mxCell id="70" style="shape=tableRow;horizontal=0;startSize=0;swimlaneHead=0;swimlaneBody=0;top=0;left=0;bottom=0;right=0;collapsible=0;dropTarget=0;fillColor=none;points=[[0,0.5],[1,0.5]];portConstraint=eastwest;strokeWidth=1;strokeColor=#000000;fontColor=#000000;" parent="45" vertex="1">
                    <mxGeometry y="40" width="480" height="51" as="geometry"/>
                </mxCell>
                <mxCell id="71" value="&lt;h3&gt;Service&lt;/h3&gt;" style="shape=partialRectangle;html=1;whiteSpace=wrap;connectable=0;fillColor=none;top=0;left=0;bottom=0;right=0;overflow=hidden;strokeWidth=1;strokeColor=#000000;fontColor=#000000;" parent="70" vertex="1">
                    <mxGeometry width="160" height="51" as="geometry">
                        <mxRectangle width="160" height="51" as="alternateBounds"/>
                    </mxGeometry>
                </mxCell>
                <mxCell id="72" value="&lt;h3&gt;Description&lt;/h3&gt;" style="shape=partialRectangle;html=1;whiteSpace=wrap;connectable=0;fillColor=none;top=0;left=0;bottom=0;right=0;overflow=hidden;strokeWidth=1;align=center;strokeColor=#000000;fontColor=#000000;" parent="70" vertex="1">
                    <mxGeometry x="160" width="160" height="51" as="geometry">
                        <mxRectangle width="160" height="51" as="alternateBounds"/>
                    </mxGeometry>
                </mxCell>
                <mxCell id="73" value="&lt;h3&gt;Port&lt;/h3&gt;" style="shape=partialRectangle;html=1;whiteSpace=wrap;connectable=0;fillColor=none;top=0;left=0;bottom=0;right=0;overflow=hidden;strokeWidth=1;align=center;strokeColor=#000000;fontColor=#000000;" parent="70" vertex="1">
                    <mxGeometry x="320" width="160" height="51" as="geometry">
                        <mxRectangle width="160" height="51" as="alternateBounds"/>
                    </mxGeometry>
                </mxCell>
                <mxCell id="46" value="" style="shape=tableRow;horizontal=0;startSize=0;swimlaneHead=0;swimlaneBody=0;top=0;left=0;bottom=0;right=0;collapsible=0;dropTarget=0;fillColor=none;points=[[0,0.5],[1,0.5]];portConstraint=eastwest;strokeWidth=1;strokeColor=#000000;fontColor=#000000;" parent="45" vertex="1">
                    <mxGeometry y="91" width="480" height="51" as="geometry"/>
                </mxCell>
                <mxCell id="47" value="auth" style="shape=partialRectangle;html=1;whiteSpace=wrap;connectable=0;fillColor=none;top=0;left=0;bottom=0;right=0;overflow=hidden;strokeWidth=1;strokeColor=#000000;fontColor=#000000;" parent="46" vertex="1">
                    <mxGeometry width="160" height="51" as="geometry">
                        <mxRectangle width="160" height="51" as="alternateBounds"/>
                    </mxGeometry>
                </mxCell>
                <mxCell id="60" value="All user methods" style="shape=partialRectangle;html=1;whiteSpace=wrap;connectable=0;fillColor=none;top=0;left=0;bottom=0;right=0;overflow=hidden;strokeWidth=1;align=left;strokeColor=#000000;fontColor=#000000;" parent="46" vertex="1">
                    <mxGeometry x="160" width="160" height="51" as="geometry">
                        <mxRectangle width="160" height="51" as="alternateBounds"/>
                    </mxGeometry>
                </mxCell>
                <mxCell id="65" value="4000" style="shape=partialRectangle;html=1;whiteSpace=wrap;connectable=0;fillColor=none;top=0;left=0;bottom=0;right=0;overflow=hidden;strokeWidth=1;align=center;strokeColor=#000000;fontColor=#000000;" parent="46" vertex="1">
                    <mxGeometry x="320" width="160" height="51" as="geometry">
                        <mxRectangle width="160" height="51" as="alternateBounds"/>
                    </mxGeometry>
                </mxCell>
                <mxCell id="49" value="" style="shape=tableRow;horizontal=0;startSize=0;swimlaneHead=0;swimlaneBody=0;top=0;left=0;bottom=0;right=0;collapsible=0;dropTarget=0;fillColor=none;points=[[0,0.5],[1,0.5]];portConstraint=eastwest;strokeWidth=1;strokeColor=#000000;fontColor=#000000;" parent="45" vertex="1">
                    <mxGeometry y="142" width="480" height="49" as="geometry"/>
                </mxCell>
                <mxCell id="50" value="tickets&amp;nbsp;" style="shape=partialRectangle;html=1;whiteSpace=wrap;connectable=0;fillColor=none;top=0;left=0;bottom=0;right=0;overflow=hidden;strokeWidth=1;strokeColor=#000000;fontColor=#000000;" parent="49" vertex="1">
                    <mxGeometry width="160" height="49" as="geometry">
                        <mxRectangle width="160" height="49" as="alternateBounds"/>
                    </mxGeometry>
                </mxCell>
                <mxCell id="61" value="All ticket methods" style="shape=partialRectangle;html=1;whiteSpace=wrap;connectable=0;fillColor=none;top=0;left=0;bottom=0;right=0;overflow=hidden;strokeWidth=1;align=left;strokeColor=#000000;fontColor=#000000;" parent="49" vertex="1">
                    <mxGeometry x="160" width="160" height="49" as="geometry">
                        <mxRectangle width="160" height="49" as="alternateBounds"/>
                    </mxGeometry>
                </mxCell>
                <mxCell id="66" style="shape=partialRectangle;html=1;whiteSpace=wrap;connectable=0;fillColor=none;top=0;left=0;bottom=0;right=0;overflow=hidden;strokeWidth=1;align=left;strokeColor=#000000;fontColor=#000000;" parent="49" vertex="1">
                    <mxGeometry x="320" width="160" height="49" as="geometry">
                        <mxRectangle width="160" height="49" as="alternateBounds"/>
                    </mxGeometry>
                </mxCell>
                <mxCell id="52" style="shape=tableRow;horizontal=0;startSize=0;swimlaneHead=0;swimlaneBody=0;top=0;left=0;bottom=0;right=0;collapsible=0;dropTarget=0;fillColor=none;points=[[0,0.5],[1,0.5]];portConstraint=eastwest;strokeWidth=1;strokeColor=#000000;fontColor=#000000;" parent="45" vertex="1">
                    <mxGeometry y="191" width="480" height="51" as="geometry"/>
                </mxCell>
                <mxCell id="53" value="orders" style="shape=partialRectangle;html=1;whiteSpace=wrap;connectable=0;fillColor=none;top=0;left=0;bottom=0;right=0;overflow=hidden;strokeWidth=1;strokeColor=#000000;fontColor=#000000;" parent="52" vertex="1">
                    <mxGeometry width="160" height="51" as="geometry">
                        <mxRectangle width="160" height="51" as="alternateBounds"/>
                    </mxGeometry>
                </mxCell>
                <mxCell id="62" value="All order methods" style="shape=partialRectangle;html=1;whiteSpace=wrap;connectable=0;fillColor=none;top=0;left=0;bottom=0;right=0;overflow=hidden;strokeWidth=1;align=left;strokeColor=#000000;fontColor=#000000;" parent="52" vertex="1">
                    <mxGeometry x="160" width="160" height="51" as="geometry">
                        <mxRectangle width="160" height="51" as="alternateBounds"/>
                    </mxGeometry>
                </mxCell>
                <mxCell id="67" style="shape=partialRectangle;html=1;whiteSpace=wrap;connectable=0;fillColor=none;top=0;left=0;bottom=0;right=0;overflow=hidden;strokeWidth=1;align=left;strokeColor=#000000;fontColor=#000000;" parent="52" vertex="1">
                    <mxGeometry x="320" width="160" height="51" as="geometry">
                        <mxRectangle width="160" height="51" as="alternateBounds"/>
                    </mxGeometry>
                </mxCell>
                <mxCell id="55" style="shape=tableRow;horizontal=0;startSize=0;swimlaneHead=0;swimlaneBody=0;top=0;left=0;bottom=0;right=0;collapsible=0;dropTarget=0;fillColor=none;points=[[0,0.5],[1,0.5]];portConstraint=eastwest;strokeWidth=1;strokeColor=#000000;fontColor=#000000;" parent="45" vertex="1">
                    <mxGeometry y="242" width="480" height="49" as="geometry"/>
                </mxCell>
                <mxCell id="56" value="expiration" style="shape=partialRectangle;html=1;whiteSpace=wrap;connectable=0;fillColor=none;top=0;left=0;bottom=0;right=0;overflow=hidden;strokeWidth=1;strokeColor=#000000;fontColor=#000000;" parent="55" vertex="1">
                    <mxGeometry width="160" height="49" as="geometry">
                        <mxRectangle width="160" height="49" as="alternateBounds"/>
                    </mxGeometry>
                </mxCell>
                <mxCell id="63" value="Watch orders, cancel after 15 minutes" style="shape=partialRectangle;html=1;whiteSpace=wrap;connectable=0;fillColor=none;top=0;left=0;bottom=0;right=0;overflow=hidden;strokeWidth=1;align=left;strokeColor=#000000;fontColor=#000000;" parent="55" vertex="1">
                    <mxGeometry x="160" width="160" height="49" as="geometry">
                        <mxRectangle width="160" height="49" as="alternateBounds"/>
                    </mxGeometry>
                </mxCell>
                <mxCell id="68" style="shape=partialRectangle;html=1;whiteSpace=wrap;connectable=0;fillColor=none;top=0;left=0;bottom=0;right=0;overflow=hidden;strokeWidth=1;align=left;strokeColor=#000000;fontColor=#000000;" parent="55" vertex="1">
                    <mxGeometry x="320" width="160" height="49" as="geometry">
                        <mxRectangle width="160" height="49" as="alternateBounds"/>
                    </mxGeometry>
                </mxCell>
                <mxCell id="58" style="shape=tableRow;horizontal=0;startSize=0;swimlaneHead=0;swimlaneBody=0;top=0;left=0;bottom=0;right=0;collapsible=0;dropTarget=0;fillColor=none;points=[[0,0.5],[1,0.5]];portConstraint=eastwest;strokeWidth=1;strokeColor=#000000;fontColor=#000000;" parent="45" vertex="1">
                    <mxGeometry y="291" width="480" height="49" as="geometry"/>
                </mxCell>
                <mxCell id="59" value="payments" style="shape=partialRectangle;html=1;whiteSpace=wrap;connectable=0;fillColor=none;top=0;left=0;bottom=0;right=0;overflow=hidden;strokeWidth=1;strokeColor=#000000;fontColor=#000000;" parent="58" vertex="1">
                    <mxGeometry width="160" height="49" as="geometry">
                        <mxRectangle width="160" height="49" as="alternateBounds"/>
                    </mxGeometry>
                </mxCell>
                <mxCell id="64" value="All payments" style="shape=partialRectangle;html=1;whiteSpace=wrap;connectable=0;fillColor=none;top=0;left=0;bottom=0;right=0;overflow=hidden;strokeWidth=1;align=left;strokeColor=#000000;fontColor=#000000;" parent="58" vertex="1">
                    <mxGeometry x="160" width="160" height="49" as="geometry">
                        <mxRectangle width="160" height="49" as="alternateBounds"/>
                    </mxGeometry>
                </mxCell>
                <mxCell id="69" style="shape=partialRectangle;html=1;whiteSpace=wrap;connectable=0;fillColor=none;top=0;left=0;bottom=0;right=0;overflow=hidden;strokeWidth=1;align=left;strokeColor=#000000;fontColor=#000000;" parent="58" vertex="1">
                    <mxGeometry x="320" width="160" height="49" as="geometry">
                        <mxRectangle width="160" height="49" as="alternateBounds"/>
                    </mxGeometry>
                </mxCell>
            </root>
        </mxGraphModel>
    </diagram>
    <diagram id="Ie4nuSu3fujYdwQfA6NA" name="Auth Routes">
        <mxGraphModel dx="647" dy="628" grid="1" gridSize="10" guides="1" tooltips="1" connect="1" arrows="1" fold="1" page="1" pageScale="1" pageWidth="850" pageHeight="1100" background="#FFFFFF" math="0" shadow="0">
            <root>
                <object label="" id="pAdnZ-3aWJ6jdG0EYMd4-0">
                    <mxCell/>
                </object>
                <mxCell id="pAdnZ-3aWJ6jdG0EYMd4-1" parent="pAdnZ-3aWJ6jdG0EYMd4-0"/>
                <mxCell id="ibmm9HgyVVwJE_FOCLBG-0" value="&lt;h1&gt;Auth Route: tickets.prod&lt;/h1&gt;" style="shape=table;html=1;whiteSpace=wrap;startSize=40;container=1;collapsible=0;childLayout=tableLayout;strokeWidth=1;fillColor=#1CBBFF;strokeColor=#000000;fontColor=#000000;" vertex="1" parent="pAdnZ-3aWJ6jdG0EYMd4-1">
                    <mxGeometry x="20" y="250" width="640" height="291" as="geometry"/>
                </mxCell>
                <mxCell id="ibmm9HgyVVwJE_FOCLBG-1" style="shape=tableRow;horizontal=0;startSize=0;swimlaneHead=0;swimlaneBody=0;top=0;left=0;bottom=0;right=0;collapsible=0;dropTarget=0;fillColor=none;points=[[0,0.5],[1,0.5]];portConstraint=eastwest;strokeWidth=1;strokeColor=#000000;fontColor=#000000;" vertex="1" parent="ibmm9HgyVVwJE_FOCLBG-0">
                    <mxGeometry y="40" width="640" height="51" as="geometry"/>
                </mxCell>
                <mxCell id="ibmm9HgyVVwJE_FOCLBG-2" value="&lt;h3&gt;Route&lt;/h3&gt;" style="shape=partialRectangle;html=1;whiteSpace=wrap;connectable=0;fillColor=none;top=0;left=0;bottom=0;right=0;overflow=hidden;strokeWidth=1;strokeColor=#000000;fontColor=#000000;" vertex="1" parent="ibmm9HgyVVwJE_FOCLBG-1">
                    <mxGeometry width="160" height="51" as="geometry">
                        <mxRectangle width="160" height="51" as="alternateBounds"/>
                    </mxGeometry>
                </mxCell>
                <mxCell id="ibmm9HgyVVwJE_FOCLBG-3" value="&lt;h3&gt;Method&lt;/h3&gt;" style="shape=partialRectangle;html=1;whiteSpace=wrap;connectable=0;fillColor=none;top=0;left=0;bottom=0;right=0;overflow=hidden;strokeWidth=1;align=center;strokeColor=#000000;fontColor=#000000;" vertex="1" parent="ibmm9HgyVVwJE_FOCLBG-1">
                    <mxGeometry x="160" width="160" height="51" as="geometry">
                        <mxRectangle width="160" height="51" as="alternateBounds"/>
                    </mxGeometry>
                </mxCell>
                <mxCell id="ibmm9HgyVVwJE_FOCLBG-4" value="&lt;h3&gt;Body&lt;/h3&gt;" style="shape=partialRectangle;html=1;whiteSpace=wrap;connectable=0;fillColor=none;top=0;left=0;bottom=0;right=0;overflow=hidden;strokeWidth=1;align=center;strokeColor=#000000;fontColor=#000000;" vertex="1" parent="ibmm9HgyVVwJE_FOCLBG-1">
                    <mxGeometry x="320" width="160" height="51" as="geometry">
                        <mxRectangle width="160" height="51" as="alternateBounds"/>
                    </mxGeometry>
                </mxCell>
                <mxCell id="ibmm9HgyVVwJE_FOCLBG-25" value="&lt;h3&gt;Purpose&lt;/h3&gt;" style="shape=partialRectangle;html=1;whiteSpace=wrap;connectable=0;fillColor=none;top=0;left=0;bottom=0;right=0;overflow=hidden;strokeWidth=1;align=center;strokeColor=#000000;fontColor=#000000;" vertex="1" parent="ibmm9HgyVVwJE_FOCLBG-1">
                    <mxGeometry x="480" width="160" height="51" as="geometry">
                        <mxRectangle width="160" height="51" as="alternateBounds"/>
                    </mxGeometry>
                </mxCell>
                <mxCell id="ibmm9HgyVVwJE_FOCLBG-5" value="" style="shape=tableRow;horizontal=0;startSize=0;swimlaneHead=0;swimlaneBody=0;top=0;left=0;bottom=0;right=0;collapsible=0;dropTarget=0;fillColor=none;points=[[0,0.5],[1,0.5]];portConstraint=eastwest;strokeWidth=1;strokeColor=#000000;fontColor=#000000;" vertex="1" parent="ibmm9HgyVVwJE_FOCLBG-0">
                    <mxGeometry y="91" width="640" height="51" as="geometry"/>
                </mxCell>
                <mxCell id="ibmm9HgyVVwJE_FOCLBG-6" value="/api/v1/users/signup" style="shape=partialRectangle;html=1;whiteSpace=wrap;connectable=0;fillColor=none;top=0;left=0;bottom=0;right=0;overflow=hidden;strokeWidth=1;strokeColor=#000000;fontColor=#000000;" vertex="1" parent="ibmm9HgyVVwJE_FOCLBG-5">
                    <mxGeometry width="160" height="51" as="geometry">
                        <mxRectangle width="160" height="51" as="alternateBounds"/>
                    </mxGeometry>
                </mxCell>
                <mxCell id="ibmm9HgyVVwJE_FOCLBG-7" value="POST" style="shape=partialRectangle;html=1;whiteSpace=wrap;connectable=0;fillColor=none;top=0;left=0;bottom=0;right=0;overflow=hidden;strokeWidth=1;align=center;strokeColor=#000000;fontColor=#000000;" vertex="1" parent="ibmm9HgyVVwJE_FOCLBG-5">
                    <mxGeometry x="160" width="160" height="51" as="geometry">
                        <mxRectangle width="160" height="51" as="alternateBounds"/>
                    </mxGeometry>
                </mxCell>
                <mxCell id="ibmm9HgyVVwJE_FOCLBG-8" value="{email: string, password: string}" style="shape=partialRectangle;html=1;whiteSpace=wrap;connectable=0;fillColor=none;top=0;left=0;bottom=0;right=0;overflow=hidden;strokeWidth=1;align=center;strokeColor=#000000;fontColor=#000000;" vertex="1" parent="ibmm9HgyVVwJE_FOCLBG-5">
                    <mxGeometry x="320" width="160" height="51" as="geometry">
                        <mxRectangle width="160" height="51" as="alternateBounds"/>
                    </mxGeometry>
                </mxCell>
                <mxCell id="ibmm9HgyVVwJE_FOCLBG-26" value="sign up" style="shape=partialRectangle;html=1;whiteSpace=wrap;connectable=0;fillColor=none;top=0;left=0;bottom=0;right=0;overflow=hidden;strokeWidth=1;align=center;strokeColor=#000000;fontColor=#000000;" vertex="1" parent="ibmm9HgyVVwJE_FOCLBG-5">
                    <mxGeometry x="480" width="160" height="51" as="geometry">
                        <mxRectangle width="160" height="51" as="alternateBounds"/>
                    </mxGeometry>
                </mxCell>
                <mxCell id="ibmm9HgyVVwJE_FOCLBG-9" value="" style="shape=tableRow;horizontal=0;startSize=0;swimlaneHead=0;swimlaneBody=0;top=0;left=0;bottom=0;right=0;collapsible=0;dropTarget=0;fillColor=none;points=[[0,0.5],[1,0.5]];portConstraint=eastwest;strokeWidth=1;strokeColor=#000000;fontColor=#000000;" vertex="1" parent="ibmm9HgyVVwJE_FOCLBG-0">
                    <mxGeometry y="142" width="640" height="49" as="geometry"/>
                </mxCell>
                <mxCell id="ibmm9HgyVVwJE_FOCLBG-10" value="/api/v1/users/signin" style="shape=partialRectangle;html=1;whiteSpace=wrap;connectable=0;fillColor=none;top=0;left=0;bottom=0;right=0;overflow=hidden;strokeWidth=1;strokeColor=#000000;fontColor=#000000;" vertex="1" parent="ibmm9HgyVVwJE_FOCLBG-9">
                    <mxGeometry width="160" height="49" as="geometry">
                        <mxRectangle width="160" height="49" as="alternateBounds"/>
                    </mxGeometry>
                </mxCell>
                <mxCell id="ibmm9HgyVVwJE_FOCLBG-11" value="POST" style="shape=partialRectangle;html=1;whiteSpace=wrap;connectable=0;fillColor=none;top=0;left=0;bottom=0;right=0;overflow=hidden;strokeWidth=1;align=center;strokeColor=#000000;fontColor=#000000;" vertex="1" parent="ibmm9HgyVVwJE_FOCLBG-9">
                    <mxGeometry x="160" width="160" height="49" as="geometry">
                        <mxRectangle width="160" height="49" as="alternateBounds"/>
                    </mxGeometry>
                </mxCell>
                <mxCell id="ibmm9HgyVVwJE_FOCLBG-12" value="{email: string, passowrd: string}" style="shape=partialRectangle;html=1;whiteSpace=wrap;connectable=0;fillColor=none;top=0;left=0;bottom=0;right=0;overflow=hidden;strokeWidth=1;align=left;strokeColor=#000000;fontColor=#000000;" vertex="1" parent="ibmm9HgyVVwJE_FOCLBG-9">
                    <mxGeometry x="320" width="160" height="49" as="geometry">
                        <mxRectangle width="160" height="49" as="alternateBounds"/>
                    </mxGeometry>
                </mxCell>
                <mxCell id="ibmm9HgyVVwJE_FOCLBG-27" value="sign in" style="shape=partialRectangle;html=1;whiteSpace=wrap;connectable=0;fillColor=none;top=0;left=0;bottom=0;right=0;overflow=hidden;strokeWidth=1;align=center;strokeColor=#000000;fontColor=#000000;" vertex="1" parent="ibmm9HgyVVwJE_FOCLBG-9">
                    <mxGeometry x="480" width="160" height="49" as="geometry">
                        <mxRectangle width="160" height="49" as="alternateBounds"/>
                    </mxGeometry>
                </mxCell>
                <mxCell id="ibmm9HgyVVwJE_FOCLBG-13" style="shape=tableRow;horizontal=0;startSize=0;swimlaneHead=0;swimlaneBody=0;top=0;left=0;bottom=0;right=0;collapsible=0;dropTarget=0;fillColor=none;points=[[0,0.5],[1,0.5]];portConstraint=eastwest;strokeWidth=1;strokeColor=#000000;fontColor=#000000;" vertex="1" parent="ibmm9HgyVVwJE_FOCLBG-0">
                    <mxGeometry y="191" width="640" height="51" as="geometry"/>
                </mxCell>
                <mxCell id="ibmm9HgyVVwJE_FOCLBG-14" value="/api/v1/users/signout" style="shape=partialRectangle;html=1;whiteSpace=wrap;connectable=0;fillColor=none;top=0;left=0;bottom=0;right=0;overflow=hidden;strokeWidth=1;strokeColor=#000000;fontColor=#000000;" vertex="1" parent="ibmm9HgyVVwJE_FOCLBG-13">
                    <mxGeometry width="160" height="51" as="geometry">
                        <mxRectangle width="160" height="51" as="alternateBounds"/>
                    </mxGeometry>
                </mxCell>
                <mxCell id="ibmm9HgyVVwJE_FOCLBG-15" value="POST" style="shape=partialRectangle;html=1;whiteSpace=wrap;connectable=0;fillColor=none;top=0;left=0;bottom=0;right=0;overflow=hidden;strokeWidth=1;align=center;strokeColor=#000000;fontColor=#000000;" vertex="1" parent="ibmm9HgyVVwJE_FOCLBG-13">
                    <mxGeometry x="160" width="160" height="51" as="geometry">
                        <mxRectangle width="160" height="51" as="alternateBounds"/>
                    </mxGeometry>
                </mxCell>
                <mxCell id="ibmm9HgyVVwJE_FOCLBG-16" value="{}" style="shape=partialRectangle;html=1;whiteSpace=wrap;connectable=0;fillColor=none;top=0;left=0;bottom=0;right=0;overflow=hidden;strokeWidth=1;align=center;strokeColor=#000000;fontColor=#000000;" vertex="1" parent="ibmm9HgyVVwJE_FOCLBG-13">
                    <mxGeometry x="320" width="160" height="51" as="geometry">
                        <mxRectangle width="160" height="51" as="alternateBounds"/>
                    </mxGeometry>
                </mxCell>
                <mxCell id="ibmm9HgyVVwJE_FOCLBG-28" value="sign out" style="shape=partialRectangle;html=1;whiteSpace=wrap;connectable=0;fillColor=none;top=0;left=0;bottom=0;right=0;overflow=hidden;strokeWidth=1;align=center;strokeColor=#000000;fontColor=#000000;" vertex="1" parent="ibmm9HgyVVwJE_FOCLBG-13">
                    <mxGeometry x="480" width="160" height="51" as="geometry">
                        <mxRectangle width="160" height="51" as="alternateBounds"/>
                    </mxGeometry>
                </mxCell>
                <mxCell id="ibmm9HgyVVwJE_FOCLBG-17" style="shape=tableRow;horizontal=0;startSize=0;swimlaneHead=0;swimlaneBody=0;top=0;left=0;bottom=0;right=0;collapsible=0;dropTarget=0;fillColor=none;points=[[0,0.5],[1,0.5]];portConstraint=eastwest;strokeWidth=1;strokeColor=#000000;fontColor=#000000;" vertex="1" parent="ibmm9HgyVVwJE_FOCLBG-0">
                    <mxGeometry y="242" width="640" height="49" as="geometry"/>
                </mxCell>
                <mxCell id="ibmm9HgyVVwJE_FOCLBG-18" value="/api/v1/users/currentuser" style="shape=partialRectangle;html=1;whiteSpace=wrap;connectable=0;fillColor=none;top=0;left=0;bottom=0;right=0;overflow=hidden;strokeWidth=1;strokeColor=#000000;fontColor=#000000;" vertex="1" parent="ibmm9HgyVVwJE_FOCLBG-17">
                    <mxGeometry width="160" height="49" as="geometry">
                        <mxRectangle width="160" height="49" as="alternateBounds"/>
                    </mxGeometry>
                </mxCell>
                <mxCell id="ibmm9HgyVVwJE_FOCLBG-19" value="POST" style="shape=partialRectangle;html=1;whiteSpace=wrap;connectable=0;fillColor=none;top=0;left=0;bottom=0;right=0;overflow=hidden;strokeWidth=1;align=center;strokeColor=#000000;fontColor=#000000;" vertex="1" parent="ibmm9HgyVVwJE_FOCLBG-17">
                    <mxGeometry x="160" width="160" height="49" as="geometry">
                        <mxRectangle width="160" height="49" as="alternateBounds"/>
                    </mxGeometry>
                </mxCell>
                <mxCell id="ibmm9HgyVVwJE_FOCLBG-20" value="-" style="shape=partialRectangle;html=1;whiteSpace=wrap;connectable=0;fillColor=none;top=0;left=0;bottom=0;right=0;overflow=hidden;strokeWidth=1;align=center;strokeColor=#000000;fontColor=#000000;" vertex="1" parent="ibmm9HgyVVwJE_FOCLBG-17">
                    <mxGeometry x="320" width="160" height="49" as="geometry">
                        <mxRectangle width="160" height="49" as="alternateBounds"/>
                    </mxGeometry>
                </mxCell>
                <mxCell id="ibmm9HgyVVwJE_FOCLBG-29" value="retrun user info" style="shape=partialRectangle;html=1;whiteSpace=wrap;connectable=0;fillColor=none;top=0;left=0;bottom=0;right=0;overflow=hidden;strokeWidth=1;align=center;strokeColor=#000000;fontColor=#000000;" vertex="1" parent="ibmm9HgyVVwJE_FOCLBG-17">
                    <mxGeometry x="480" width="160" height="49" as="geometry">
                        <mxRectangle width="160" height="49" as="alternateBounds"/>
                    </mxGeometry>
                </mxCell>
            </root>
        </mxGraphModel>
    </diagram>
</mxfile>